<svg xmlns="http://www.w3.org/2000/svg" viewBox="0 0 512 512" role="img" aria-labelledby="title desc">
  <title id="title">Forecast Fit</title>
  <desc id="desc">A weather-aware route and gear planner icon.</desc>
  <rect width="512" height="512" rx="112" fill="#f4f7f5"/>
  <path d="M96 324c58-88 118-132 180-132 52 0 99 31 140 92" fill="none" stroke="#1f8a70" stroke-width="34" stroke-linecap="round"/>
  <path d="M96 356c46-42 91-64 136-64 48 0 93 22 136 64" fill="none" stroke="#2f4858" stroke-width="28" stroke-linecap="round"/>
  <circle cx="360" cy="146" r="46" fill="#ffbf47"/>
  <path d="M360 70v28M360 194v28M284 146h28M408 146h28M306 92l20 20M394 180l20 20M414 92l-20 20M326 180l-20 20" stroke="#ffbf47" stroke-width="18" stroke-linecap="round"/>
  <path d="M128 214h84c28 0 50 23 50 50s-22 50-50 50h-42" fill="none" stroke="#7bb7d8" stroke-width="30" stroke-linecap="round"/>
  <path d="M126 404h260" stroke="#2f4858" stroke-width="24" stroke-linecap="round"/>
</svg>
